<mxfile host="app.diagrams.net" modified="2023-07-28T16:32:16.448Z" agent="Mozilla/5.0 (Windows NT 10.0; Win64; x64) AppleWebKit/537.36 (KHTML, like Gecko) Chrome/115.0.0.0 Safari/537.36" etag="v7kOELqipk3l-hOp2vgK" version="21.6.5" type="github">
  <diagram name="Page-1" id="DifffmxhmgRW7n6XJNVm">
    <mxGraphModel dx="706" dy="252" grid="1" gridSize="10" guides="1" tooltips="1" connect="1" arrows="1" fold="1" page="1" pageScale="1" pageWidth="827" pageHeight="1169" math="0" shadow="0">
      <root>
        <mxCell id="0" />
        <mxCell id="1" parent="0" />
        <mxCell id="_cqdOyRNjfjppaLz05Ro-1" value="&lt;font style=&quot;font-size: 9px;&quot;&gt;AWS Redshift Gov Global Non-Prod Account &lt;br&gt;(gov-dos-consumer-global-np_264146781800)&lt;/font&gt;" style="points=[[0,0],[0.25,0],[0.5,0],[0.75,0],[1,0],[1,0.25],[1,0.5],[1,0.75],[1,1],[0.75,1],[0.5,1],[0.25,1],[0,1],[0,0.75],[0,0.5],[0,0.25]];outlineConnect=0;gradientColor=none;html=1;whiteSpace=wrap;fontSize=12;fontStyle=0;container=1;pointerEvents=0;collapsible=0;recursiveResize=0;shape=mxgraph.aws4.group;grIcon=mxgraph.aws4.group_account;strokeColor=#CD2264;fillColor=none;verticalAlign=top;align=left;spacingLeft=30;fontColor=#CD2264;dashed=0;" parent="1" vertex="1">
          <mxGeometry x="410" y="150" width="358.37" height="200" as="geometry" />
        </mxCell>
        <mxCell id="EMeevk_7GVCG0H6eLTi_-2" value="" style="outlineConnect=0;dashed=0;verticalLabelPosition=bottom;verticalAlign=top;align=center;html=1;shape=mxgraph.aws3.redshift;fillColor=#2E73B8;gradientColor=none;" vertex="1" parent="_cqdOyRNjfjppaLz05Ro-1">
          <mxGeometry x="80" y="110.07" width="67.5" height="75" as="geometry" />
        </mxCell>
        <mxCell id="_cqdOyRNjfjppaLz05Ro-13" value="&lt;font style=&quot;font-size: 6px;&quot;&gt;IAM Role for redshift-data-api&lt;/font&gt;" style="text;html=1;align=center;verticalAlign=middle;resizable=0;points=[];autosize=1;strokeColor=none;fillColor=none;" parent="_cqdOyRNjfjppaLz05Ro-1" vertex="1">
          <mxGeometry x="250" y="155.07" width="100" height="30" as="geometry" />
        </mxCell>
        <mxCell id="EMeevk_7GVCG0H6eLTi_-9" value="" style="sketch=0;outlineConnect=0;fontColor=#232F3E;gradientColor=none;fillColor=#BF0816;strokeColor=none;dashed=0;verticalLabelPosition=bottom;verticalAlign=top;align=center;html=1;fontSize=12;fontStyle=0;aspect=fixed;pointerEvents=1;shape=mxgraph.aws4.role;" vertex="1" parent="_cqdOyRNjfjppaLz05Ro-1">
          <mxGeometry x="274" y="141.28" width="40" height="22.57" as="geometry" />
        </mxCell>
        <mxCell id="_cqdOyRNjfjppaLz05Ro-14" value="" style="endArrow=classic;html=1;rounded=0;fillColor=#AD429B;strokeColor=#A6387E;" parent="_cqdOyRNjfjppaLz05Ro-1" edge="1">
          <mxGeometry width="50" height="50" relative="1" as="geometry">
            <mxPoint x="333" y="190" as="sourcePoint" />
            <mxPoint x="333.29032258064524" y="270" as="targetPoint" />
          </mxGeometry>
        </mxCell>
        <mxCell id="_cqdOyRNjfjppaLz05Ro-15" value="&lt;font style=&quot;font-size: 9px;&quot;&gt;AWS Gov Global Apps Non-Prod Account&lt;br&gt;(gov-av-global-apps-nonprod_231648331929)&lt;br&gt;&lt;/font&gt;" style="points=[[0,0],[0.25,0],[0.5,0],[0.75,0],[1,0],[1,0.25],[1,0.5],[1,0.75],[1,1],[0.75,1],[0.5,1],[0.25,1],[0,1],[0,0.75],[0,0.5],[0,0.25]];outlineConnect=0;gradientColor=none;html=1;whiteSpace=wrap;fontSize=12;fontStyle=0;container=1;pointerEvents=0;collapsible=0;recursiveResize=0;shape=mxgraph.aws4.group;grIcon=mxgraph.aws4.group_account;strokeColor=#CD2264;fillColor=none;verticalAlign=top;align=left;spacingLeft=30;fontColor=#CD2264;dashed=0;" parent="1" vertex="1">
          <mxGeometry x="410" y="410" width="360" height="220" as="geometry" />
        </mxCell>
        <mxCell id="_cqdOyRNjfjppaLz05Ro-16" style="edgeStyle=orthogonalEdgeStyle;rounded=0;orthogonalLoop=1;jettySize=auto;html=1;" parent="_cqdOyRNjfjppaLz05Ro-15" edge="1">
          <mxGeometry relative="1" as="geometry">
            <mxPoint x="259.71" y="150" as="sourcePoint" />
            <mxPoint x="259.71" y="79" as="targetPoint" />
            <Array as="points" />
          </mxGeometry>
        </mxCell>
        <mxCell id="_cqdOyRNjfjppaLz05Ro-18" value="&lt;font style=&quot;font-size: 6px;&quot;&gt;Event Bridge to Trigger Lambda&lt;/font&gt;" style="text;html=1;align=center;verticalAlign=middle;resizable=0;points=[];autosize=1;strokeColor=none;fillColor=none;" parent="_cqdOyRNjfjppaLz05Ro-15" vertex="1">
          <mxGeometry x="205" y="137" width="110" height="30" as="geometry" />
        </mxCell>
        <mxCell id="_cqdOyRNjfjppaLz05Ro-23" value="" style="sketch=0;outlineConnect=0;fontColor=#232F3E;gradientColor=none;fillColor=#D45B07;strokeColor=none;dashed=0;verticalLabelPosition=bottom;verticalAlign=top;align=center;html=1;fontSize=12;fontStyle=0;aspect=fixed;pointerEvents=1;shape=mxgraph.aws4.lambda_function;" parent="_cqdOyRNjfjppaLz05Ro-15" vertex="1">
          <mxGeometry x="236" y="31" width="48" height="48" as="geometry" />
        </mxCell>
        <mxCell id="EMeevk_7GVCG0H6eLTi_-3" value="" style="sketch=0;outlineConnect=0;fontColor=#232F3E;gradientColor=none;fillColor=#BF0816;strokeColor=none;dashed=0;verticalLabelPosition=bottom;verticalAlign=top;align=center;html=1;fontSize=12;fontStyle=0;aspect=fixed;pointerEvents=1;shape=mxgraph.aws4.role;" vertex="1" parent="_cqdOyRNjfjppaLz05Ro-15">
          <mxGeometry x="249.36" y="10" width="21.27" height="12" as="geometry" />
        </mxCell>
        <mxCell id="EMeevk_7GVCG0H6eLTi_-4" value="&lt;font style=&quot;font-size: 6px;&quot;&gt;Lambda Execution Role&lt;/font&gt;" style="text;html=1;align=center;verticalAlign=middle;resizable=0;points=[];autosize=1;strokeColor=none;fillColor=none;" vertex="1" parent="_cqdOyRNjfjppaLz05Ro-15">
          <mxGeometry x="215" y="10" width="90" height="30" as="geometry" />
        </mxCell>
        <mxCell id="EMeevk_7GVCG0H6eLTi_-7" value="&lt;font style=&quot;font-size: 8px;&quot;&gt;AWS Secrets Manager&lt;/font&gt;" style="sketch=0;outlineConnect=0;fontColor=#232F3E;gradientColor=none;strokeColor=#ffffff;fillColor=#232F3E;dashed=0;verticalLabelPosition=middle;verticalAlign=bottom;align=center;html=1;whiteSpace=wrap;fontSize=10;fontStyle=1;spacing=3;shape=mxgraph.aws4.productIcon;prIcon=mxgraph.aws4.secrets_manager;" vertex="1" parent="_cqdOyRNjfjppaLz05Ro-15">
          <mxGeometry x="306" y="10" width="50" height="90" as="geometry" />
        </mxCell>
        <mxCell id="EMeevk_7GVCG0H6eLTi_-1" value="" style="endArrow=classic;html=1;rounded=0;fillColor=#AD429B;strokeColor=#A6387E;exitX=0.513;exitY=0.018;exitDx=0;exitDy=0;exitPerimeter=0;" edge="1" parent="1" source="EMeevk_7GVCG0H6eLTi_-4" target="EMeevk_7GVCG0H6eLTi_-2">
          <mxGeometry width="50" height="50" relative="1" as="geometry">
            <mxPoint x="627" y="410" as="sourcePoint" />
            <mxPoint x="520" y="360" as="targetPoint" />
            <Array as="points">
              <mxPoint x="670" y="298" />
            </Array>
          </mxGeometry>
        </mxCell>
      </root>
    </mxGraphModel>
  </diagram>
</mxfile>
